<svg width="468" height="268" viewBox="0 0 468 268" fill="none" xmlns="http://www.w3.org/2000/svg">
<path d="M175.91 198.24C194.38 199.58 213.74 200.3 233.67 200.3C253.41 200.3 272.59 199.6 290.9 198.28C295.74 197.93 300.53 197.54 305.24 197.11L311.65 209.92L316.33 219.29C330.97 248.57 360.89 267.06 393.63 267.06L361.6 203L355.37 190.54C360.03 189.73 364.58 188.87 369.01 187.97C428.53 175.87 467.35 156 467.35 133.54C467.35 104.33 401.7 79.5 310.25 70.45L318.2 86.36C375.15 95.33 413.93 113.1 413.93 133.54C413.93 148.35 393.59 161.75 360.73 171.43C356.54 172.67 352.14 173.84 347.56 174.95C332.91 178.49 316.34 181.37 298.38 183.41C293.73 183.94 288.99 184.42 284.16 184.83C268.14 186.21 251.19 186.95 233.66 186.95C215.94 186.95 198.81 186.19 182.63 184.78L175.9 198.25L175.91 198.24Z" fill="#626366"/>
<path d="M53.4 133.53C53.4 113.15 91.91 95.44 148.54 86.44C153.75 85.61 159.1 84.85 164.6 84.18L73.16 267.06C105.89 267.06 135.82 248.57 150.46 219.29L233.4 53.42L292.02 170.66C295.44 170.3 298.82 169.92 302.18 169.5C316.34 167.73 329.48 165.44 341.44 162.67L272.05 23.89C264.73 9.25 249.77 0 233.4 0C217.03 0 202.07 9.25 194.75 23.89L172.14 69.11C166.85 69.52 161.64 69.98 156.52 70.5C65.37 79.61 0 104.39 0 133.54C0 155.94 38.6 175.76 97.84 187.87L106.13 171.28C73.56 161.61 53.41 148.27 53.41 133.53H53.4Z" fill="#293C8F"/>
</svg>
