<?xml version="1.0" encoding="UTF-8"?>
<svg id="katman_1" xmlns="http://www.w3.org/2000/svg" version="1.1" viewBox="0 0 1280 304.76">
  <!-- Generator: Adobe Illustrator 29.6.0, SVG Export Plug-In . SVG Version: 2.1.1 Build 207)  -->
  <defs>
    <style>
      .st0 {
        fill: #293c8f;
      }

      .st1 {
        fill: #626366;
      }
    </style>
  </defs>
  <path class="st1" d="M215.7,211.41c18.47,1.34,37.83,2.06,57.76,2.06,19.74,0,38.92-.7,57.23-2.02,4.84-.35,9.63-.74,14.34-1.17l6.41,12.81,4.68,9.37c14.64,29.28,44.56,47.77,77.3,47.77h0l-32.03-64.06-6.23-12.46c4.66-.81,9.21-1.67,13.64-2.57,59.52-12.1,98.34-31.97,98.34-54.43,0-29.21-65.65-54.04-157.1-63.09l7.95,15.91c56.95,8.97,95.73,26.74,95.73,47.18,0,14.81-20.34,28.21-53.2,37.89-4.19,1.24-8.59,2.41-13.17,3.52-14.65,3.54-31.22,6.42-49.18,8.46-4.65.53-9.39,1.01-14.22,1.42-16.02,1.38-32.97,2.12-50.5,2.12-17.72,0-34.85-.76-51.03-2.17l-6.73,13.47Z"/>
  <path class="st0" d="M93.19,146.7c0-20.38,38.51-38.09,95.14-47.09,5.21-.83,10.56-1.59,16.06-2.26l-91.44,182.88h0c32.73,0,62.66-18.49,77.3-47.77l82.94-165.87h0l58.62,117.24c3.42-.36,6.8-.74,10.16-1.16,14.16-1.77,27.3-4.06,39.26-6.83l-69.39-138.78c-7.32-14.64-22.28-23.89-38.65-23.89h0c-16.37,0-31.33,9.25-38.65,23.89l-22.61,45.22c-5.29.41-10.5.87-15.62,1.39-91.15,9.11-156.52,33.89-156.52,63.04,0,22.4,38.6,42.22,97.84,54.33l8.29-16.59c-32.57-9.67-52.72-23.01-52.72-37.75Z"/>
  <path class="st0" d="M695.27,230.92V72.72h29.43v158.2h-29.43Z"/>
  <path class="st0" d="M752.33,230.92v-121.26c0-35.85,27.63-37.34,57.42-37.34,11.76,0,32.1.54,44.36,1.09v20.98h-45.09c-23.44,0-27.41,4.41-27.41,24.51v20.78h58.57v21.52h-58.57v69.73h-29.29Z"/>
  <path class="st0" d="M621.77,89.97c-4.62-12.97-13.56-18.88-25.1-18.88s-20.56,5.91-25.25,18.88l-50.93,140.95h30.15l13.99-42.03h41.89l-7.04-20.84h-27.93s23.81-71.56,23.81-71.56l45.37,134.44h31.16l-50.14-140.95Z"/>
  <g>
    <path class="st1" d="M888.27,128.76v-57.34c5.64-1.03,11.94-1.55,18.91-1.55,5.44-.02,9.88.6,13.3,1.85,3.43,1.25,6.09,3.15,7.97,5.69,1.39,1.78,2.48,4.2,3.28,7.27.34,1.31.63,2.82.86,4.55.39,3.03.58,6.65.58,10.85s-.19,7.83-.58,10.88c-.24,1.76-.53,3.28-.86,4.55-.81,3.07-1.91,5.48-3.28,7.24-1.88,2.54-4.54,4.44-7.97,5.69-3.43,1.25-7.87,1.87-13.3,1.86-6.96,0-13.27-.52-18.91-1.55ZM898.61,78.69v42.8c2.52.34,4.82.51,6.88.51,6.54,0,11.12-1.46,13.73-4.37,1.81-2.02,2.93-5.07,3.33-9.15.17-1.68.26-4.47.26-8.39,0-4.78-.16-8.17-.48-10.17-.61-3.86-2.03-6.69-4.27-8.49-2.68-2.17-6.86-3.25-12.56-3.25-2.06,0-4.36.17-6.88.51Z"/>
    <path class="st1" d="M955.14,72.21c0,2.25-.42,3.8-1.25,4.63-.81.83-2.36,1.25-4.62,1.25s-3.8-.41-4.63-1.25c-.81-.85-1.22-2.39-1.22-4.63s.41-3.77,1.25-4.6c.85-.85,2.38-1.27,4.6-1.27s3.75.42,4.6,1.27c.85.85,1.27,2.38,1.27,4.6ZM954.14,84.44v45.26h-9.71v-45.26h9.71Z"/>
    <path class="st1" d="M993.81,129.98v-1.93c-3.32.83-6.62,1.24-9.88,1.24-3.54,0-6.5-.38-8.89-1.14-2.38-.76-4.4-2.01-6.06-3.76-1.66-1.75-2.88-4.07-3.66-6.98-.78-2.91-1.17-6.52-1.17-10.84,0-6.76,1.07-11.93,3.2-15.5,1.07-1.76,2.46-3.18,4.17-4.24,1.71-1.05,3.67-1.81,5.87-2.29,2.21-.48,4.83-.71,7.88-.71s6.34.32,9.51.97c3.1.63,5.86,1.63,8.28,3,.26,2.75.38,5.52.38,8.31v36.62c0,4.37-1.17,7.71-3.51,10.01-1.1,1.09-2.43,1.93-3.99,2.54-2.78,1.14-6.33,1.7-10.67,1.7-5.32,0-11.4-.59-18.25-1.78l.79-7.07c5.98.85,11.44,1.27,16.37,1.27,3.36,0,5.8-.76,7.33-2.29s2.3-3.91,2.3-7.14ZM993.81,120.55v-21.71c0-2.29-.09-4.31-.28-6.07-.96-.49-2.19-.86-3.68-1.12-1.47-.27-3-.41-4.58-.41-2.25.05-4.09.36-5.53.93-1.43.57-2.56,1.43-3.39,2.58-1.03,1.47-1.72,3.23-2.06,5.26-.17,1.07-.28,2.12-.33,3.15-.05.93-.08,2.07-.08,3.41,0,3.8.22,6.57.66,8.33.71,2.75,2.23,4.64,4.55,5.69,1.78.81,4.14,1.22,7.09,1.22,2.58,0,5.12-.42,7.62-1.27Z"/>
    <path class="st1" d="M1026.17,72.21c0,2.25-.42,3.8-1.25,4.63-.81.83-2.36,1.25-4.62,1.25s-3.8-.41-4.63-1.25c-.81-.85-1.22-2.39-1.22-4.63s.41-3.77,1.25-4.6c.85-.85,2.38-1.27,4.6-1.27s3.75.42,4.6,1.27c.85.85,1.27,2.38,1.27,4.6ZM1025.18,84.44v45.26h-9.71v-45.26h9.71Z"/>
    <path class="st1" d="M1060.35,122.74l.74,6.91c-2.68.44-4.96.66-6.84.66-4.53,0-7.83-1-9.92-3-2.1-2-3.14-5.12-3.14-9.35v-26.36h-7.65v-7.17h7.65v-11.21l9.68-1.57v12.78h9.4v7.17h-9.4v25.54c0,2.15.47,3.64,1.4,4.47.93.83,2.48,1.24,4.65,1.24.88,0,2.02-.04,3.43-.13Z"/>
    <path class="st1" d="M1085.01,130.31c-5.98,0-10.33-1.16-13.04-3.48-2.68-2.32-4.01-5.86-4.01-10.62,0-4.13.98-7.37,2.94-9.71,1.95-2.34,5.04-3.83,9.24-4.47,3.29-.49,8.63-.89,16.04-1.2,0-3.24-.77-5.62-2.3-7.14-1.54-1.53-3.98-2.29-7.33-2.29-4.47,0-9.72.38-15.73,1.14l-.79-7.07c6.66-1.1,12.47-1.65,17.43-1.65,4.34,0,7.89.57,10.67,1.7,1.56.61,2.89,1.46,3.99,2.54,2.34,2.3,3.51,5.64,3.51,10.01v19.95c0,2.8-.13,5.57-.38,8.31-4.71,2.64-11.45,3.97-20.23,3.97ZM1096.17,115.47v-8.34c-.05,0-.15,0-.29.01-.14,0-.35.02-.62.03-.27,0-.53.01-.79.01l-1.88.08-1.73.1c-.71.02-1.34.06-1.9.13-.14,0-.7.06-1.7.18-1.05.1-2.18.29-3.38.56-2.43.56-4.1,1.36-5.03,2.41-.9,1.05-1.35,2.86-1.35,5.41,0,2.78.77,4.67,2.31,5.67,1.44.92,3.65,1.37,6.64,1.37,4.12,0,7.27-.52,9.45-1.55.19-1.76.28-3.79.28-6.07Z"/>
    <path class="st1" d="M1116.85,117.98v-51.03h9.68v50.6c0,2.08.25,3.91.76,5.49.52,1.59,1.37,3.15,2.54,4.68l-8.41,3.99c-1.54-1.74-2.69-3.7-3.46-5.87-.75-2.2-1.12-4.82-1.12-7.85Z"/>
    <path class="st1" d="M902.17,220.86c2.83,0,5.11-.31,6.84-.94,1.45-.54,2.55-1.41,3.28-2.6.73-1.2,1.11-2.83,1.14-4.92,0-2.51-.77-4.42-2.31-5.74-.92-.83-2.05-1.51-3.4-2.03-.78-.32-2.18-.8-4.2-1.42-.61-.17-.92-.26-.94-.28-1.76-.54-3.19-1.01-4.29-1.4-1.36-.49-2.58-.99-3.66-1.5-1.32-.63-2.37-1.22-3.15-1.78-2.03-1.51-3.45-3.15-4.24-4.93-.97-2.19-1.45-4.76-1.45-7.73,0-4.85,1.16-8.59,3.48-11.23,1.1-1.25,2.52-2.28,4.27-3.08,3.22-1.49,7.6-2.24,13.14-2.24s10.87.56,16.34,1.68l-.91,7.96c-5.19-.78-9.4-1.17-12.63-1.17-.86,0-1.47,0-1.8.03-.49,0-1.13.03-1.91.08-1.31.08-2.61.28-3.91.58-1.19.25-2.32.75-3.38,1.47-1.58,1.07-2.36,2.68-2.36,4.83,0,2.85.85,4.96,2.57,6.33,1.13.9,3.11,1.74,5.94,2.54.66.19,1.37.38,2.13.59l1.2.33c4.45,1.2,7.89,2.67,10.32,4.4,2.01,1.44,3.48,3.22,4.41,5.34.92,2.12,1.4,4.81,1.44,8.08,0,6.27-1.89,10.77-5.67,13.5-3.59,2.59-8.93,3.89-16.01,3.89-5.63,0-11.13-.56-16.52-1.68l.99-8.18c5.76.83,10.85,1.24,15.27,1.24Z"/>
    <path class="st1" d="M972.27,195.55c.71,2.86,1.07,6.42,1.07,10.67s-.36,7.8-1.07,10.7c-1.41,5.83-4.64,9.59-9.68,11.29-2.54.85-5.68,1.27-9.4,1.27s-6.9-.41-9.4-1.22c-5.03-1.64-8.27-5.39-9.71-11.23-.7-2.93-1.04-6.53-1.04-10.8s.35-7.86,1.04-10.77c1.44-5.85,4.68-9.58,9.71-11.21,2.49-.83,5.62-1.24,9.4-1.24s6.86.42,9.4,1.27c5.05,1.69,8.28,5.46,9.68,11.28ZM942.76,206.22c0,4.93.43,8.56,1.3,10.88.74,1.78,1.8,3,3.18,3.66,1.37.66,3.35,1.01,5.94,1.04,2.15,0,3.87-.25,5.16-.75,1.29-.5,2.33-1.35,3.13-2.55.83-1.22,1.4-2.8,1.7-4.75.32-1.88.48-4.39.48-7.52s-.16-5.63-.48-7.5c-.31-1.93-.87-3.51-1.7-4.75-.8-1.2-1.84-2.05-3.14-2.56-1.29-.5-3.01-.75-5.15-.75-2.1-.02-3.81.22-5.13.7-1.32.48-2.37,1.28-3.15,2.4-.51.78-.92,1.75-1.25,2.9-.59,2.05-.89,5.24-.89,9.56Z"/>
    <path class="st1" d="M983.42,217.15v-51.03h9.68v50.6c0,2.08.25,3.91.76,5.49.52,1.59,1.37,3.15,2.54,4.68l-8.41,3.99c-1.54-1.74-2.69-3.7-3.46-5.87-.75-2.2-1.12-4.82-1.12-7.85Z"/>
    <path class="st1" d="M1033.46,214.25v-30.65h9.63v33.6c0,2.8-.13,5.57-.38,8.31-5.39,2.64-12.17,3.97-20.36,3.97-3.29,0-6.16-.34-8.61-1.02-1.98-.58-3.72-1.54-5.21-2.9-1.14-1.07-2.02-2.52-2.67-4.37-.26-.76-.46-1.64-.61-2.64-.26-1.69-.38-3.67-.38-5.92v-29.03h9.66v27.98c0,1.21.04,2.3.13,3.28.25,2.12.8,3.64,1.65,4.57.78.83,1.85,1.44,3.22,1.83,1.36.39,3.19.59,5.48.59,1.52,0,3.03-.13,4.52-.38,1.49-.29,2.71-.67,3.66-1.14.19-1.76.28-3.79.28-6.07Z"/>
    <path class="st1" d="M1078.5,221.9l.74,6.91c-2.68.44-4.96.66-6.84.66-4.53,0-7.83-1-9.92-3-2.1-2-3.14-5.12-3.14-9.35v-26.36h-7.65v-7.17h7.65v-11.21l9.68-1.57v12.78h9.4v7.17h-9.4v25.54c0,2.15.47,3.64,1.4,4.47.93.83,2.48,1.24,4.65,1.24.88,0,2.02-.04,3.43-.13Z"/>
    <path class="st1" d="M1098.63,171.38c0,2.25-.42,3.8-1.25,4.63-.81.83-2.36,1.25-4.62,1.25s-3.8-.41-4.63-1.25c-.81-.85-1.22-2.39-1.22-4.63s.41-3.77,1.25-4.6c.85-.85,2.38-1.27,4.6-1.27s3.75.42,4.6,1.27c.85.85,1.27,2.38,1.27,4.6ZM1097.64,183.6v45.26h-9.71v-45.26h9.71Z"/>
    <path class="st1" d="M1147.58,195.55c.71,2.86,1.07,6.42,1.07,10.67s-.36,7.8-1.07,10.7c-1.41,5.83-4.64,9.59-9.68,11.29-2.54.85-5.68,1.27-9.4,1.27s-6.9-.41-9.4-1.22c-5.03-1.64-8.27-5.39-9.71-11.23-.7-2.93-1.04-6.53-1.04-10.8s.35-7.86,1.04-10.77c1.44-5.85,4.68-9.58,9.71-11.21,2.49-.83,5.62-1.24,9.4-1.24s6.86.42,9.4,1.27c5.05,1.69,8.28,5.46,9.68,11.28ZM1118.07,206.22c0,4.93.43,8.56,1.3,10.88.74,1.78,1.8,3,3.18,3.66,1.37.66,3.35,1.01,5.94,1.04,2.15,0,3.87-.25,5.16-.75,1.29-.5,2.33-1.35,3.13-2.55.83-1.22,1.4-2.8,1.7-4.75.32-1.88.48-4.39.48-7.52s-.16-5.63-.48-7.5c-.31-1.93-.87-3.51-1.7-4.75-.8-1.2-1.84-2.05-3.14-2.56-1.29-.5-3.01-.75-5.15-.75-2.1-.02-3.81.22-5.13.7-1.32.48-2.37,1.28-3.15,2.4-.51.78-.92,1.75-1.25,2.9-.59,2.05-.89,5.24-.89,9.56Z"/>
    <path class="st1" d="M1197.54,199.84v29.03h-9.66v-27.98c0-1.3-.05-2.4-.15-3.28-.22-2.13-.77-3.66-1.65-4.58-.78-.83-1.86-1.44-3.23-1.83-1.37-.39-3.21-.59-5.52-.59-1.58,0-3.1.14-4.58.41-1.49.25-2.72.63-3.68,1.12-.18,1.76-.28,3.79-.28,6.07v30.65h-9.63v-33.6c0-2.8.13-5.57.38-8.31,5.39-2.64,12.2-3.96,20.43-3.96,6.52.07,11.06,1.3,13.6,3.68.88.83,1.57,1.69,2.07,2.57.5.88.89,1.94,1.18,3.18.32,1.27.52,2.44.59,3.51.08,1.24.13,2.54.13,3.91Z"/>
    <path class="st1" d="M1220.62,221.7c2.81,0,4.89-.17,6.25-.51,2.83-.75,4.25-2.31,4.25-4.7,0-1.15-.26-2.18-.79-3.08-.39-.66-1.07-1.27-2.06-1.83-.75-.44-1.69-.8-2.85-1.09l-1.6-.46c-.71-.19-1.23-.34-1.57-.46-3.39-1.03-5.73-1.85-7.02-2.44-2.93-1.37-4.95-3.22-6.05-5.54-.75-1.64-1.12-3.58-1.12-5.82,0-3.8,1.01-6.73,3.02-8.79.96-.98,2.12-1.76,3.46-2.34,2.47-1.1,5.63-1.65,9.48-1.65,3.13,0,5.89.14,8.26.4,2.58.29,5.19.74,7.83,1.35l-.92,7.09c-4.35-.81-8.12-1.22-11.31-1.22-.76,0-1.27,0-1.53.03-.12,0-.65.02-1.6.05-.97.05-2.08.22-3.33.51-.95.22-1.83.68-2.65,1.37-.73.61-1.09,1.5-1.09,2.67-.09,1.68.72,3.11,2.41,4.3.44.29.98.57,1.62.84.61.25,1.18.47,1.7.63l1.83.58,1.68.51c3.4,1.17,5.5,1.91,6.27,2.24,2.73,1.17,4.68,2.63,5.85,4.4,1.24,1.85,1.86,4.31,1.86,7.4,0,3.97-1.12,7.04-3.35,9.23-.98.97-2.26,1.77-3.81,2.41-2.78,1.13-6.27,1.7-10.47,1.7-5.68,0-10.89-.59-15.63-1.78l.92-7.24c4.51.83,8.52,1.24,12.05,1.24Z"/>
  </g>
</svg>